<?xml version="1.0" standalone="no"?><!DOCTYPE svg PUBLIC "-//W3C//DTD SVG 1.1//EN" "http://www.w3.org/Graphics/SVG/1.1/DTD/svg11.dtd"><svg t="1643275621012" class="icon" viewBox="0 0 1024 1024" version="1.1" xmlns="http://www.w3.org/2000/svg" p-id="2065" xmlns:xlink="http://www.w3.org/1999/xlink" width="200" height="200"><defs><style type="text/css"></style></defs><path d="M799.742888 801.501842a50.45656 50.45656 0 0 1 71.347774 0l130.783892 105.555612h2.260161a69.026529 69.026529 0 0 1 0 96.881482 67.193966 67.193966 0 0 1-95.781944 0l-108.548798-124.431008-4.092723-4.581406a55.465565 55.465565 0 0 1 4.092723-73.302509zM439.338889 0.061085a436.577522 436.577522 0 0 1 310.497208 130.050867 446.290104 446.290104 0 0 1 128.584816 313.795821A439.204195 439.204195 0 1 1 439.216718 0z" p-id="2066" fill="#ffffff"></path></svg>